@startuml LayerStructure_TypicalClass

skinparam sequence {
    ArrowColor #Black
}
skinparam NoteBorderColor #Black

rectangle {
    package "プレゼンテーション（Presentation）" as Presentation #dae8fc {
        class Controller
    }

    package "アプリケーション（Application）" as Application #d5e8d4 {
        class UseCase
        interface QueryService
    }

    package "ドメイン（Domain）" as Domain #ffe6cc {
        class DomainObject {
            ValueObject
            Entity
            Aggregate
            DomainService
        }
        interface Repository
        interface Service
    }

    package "インフラストラクチャ（Infrastructure）" as Infrastructure #f8cecc {
        class RepositoryImpl
        class ServiceImpl
        class QueryServiceImpl
    }

    Controller --> UseCase
    Controller --> DomainObject

    UseCase --> DomainObject
    UseCase --> Repository
    UseCase --> Service
    UseCase -> QueryService

    RepositoryImpl .up.|> Repository
    ServiceImpl .up.|> Service
    QueryServiceImpl .up.|> QueryService

    Repository --> DomainObject
    Service -> DomainObject

    RepositoryImpl -up-> DomainObject
    ServiceImpl -up-> DomainObject
}

@enduml
